<mxfile host="app.diagrams.net" modified="2023-03-28T20:12:49.670Z" agent="Mozilla/5.0 (Windows NT 10.0; Win64; x64) AppleWebKit/537.36 (KHTML, like Gecko) Chrome/110.0.0.0 Safari/537.36 OPR/96.0.0.0" etag="SrLoDj4Pkey0RwBD-2X7" version="21.1.1" type="github">
  <diagram name="Page-1" id="b520641d-4fe3-3701-9064-5fc419738815">
    <mxGraphModel dx="2820" dy="792" grid="1" gridSize="10" guides="1" tooltips="1" connect="1" arrows="1" fold="1" page="1" pageScale="1" pageWidth="1100" pageHeight="850" background="none" math="0" shadow="0">
      <root>
        <mxCell id="0" />
        <mxCell id="1" parent="0" />
        <mxCell id="cbilipExDDbKOgptpwRu-25" value="&#xa;&lt;span style=&quot;color: rgb(232, 230, 227); font-family: Helvetica; font-size: 12px; font-style: normal; font-variant-ligatures: normal; font-variant-caps: normal; font-weight: 400; letter-spacing: normal; orphans: 2; text-align: center; text-indent: 0px; text-transform: none; widows: 2; word-spacing: 0px; -webkit-text-stroke-width: 0px; background-color: rgb(26, 28, 30); text-decoration-thickness: initial; text-decoration-style: initial; text-decoration-color: initial; float: none; display: inline !important;&quot;&gt;Esta etapa envolve a interação entre cliente e software para selecionar produtos e realizar um pedido&lt;/span&gt;&#xa;&#xa;" style="whiteSpace=wrap;html=1;aspect=fixed;" vertex="1" parent="1">
          <mxGeometry x="-890" y="80" width="150" height="150" as="geometry" />
        </mxCell>
        <mxCell id="cbilipExDDbKOgptpwRu-28" value="Realizar pedido" style="text;strokeColor=none;fillColor=none;html=1;fontSize=24;fontStyle=1;verticalAlign=middle;align=center;" vertex="1" parent="1">
          <mxGeometry x="-870" y="40" width="100" height="40" as="geometry" />
        </mxCell>
        <mxCell id="cbilipExDDbKOgptpwRu-30" value="" style="endArrow=classic;html=1;rounded=0;exitX=0.5;exitY=1;exitDx=0;exitDy=0;entryX=0.5;entryY=0;entryDx=0;entryDy=0;" edge="1" parent="1" source="cbilipExDDbKOgptpwRu-25" target="cbilipExDDbKOgptpwRu-32">
          <mxGeometry width="50" height="50" relative="1" as="geometry">
            <mxPoint x="500" y="300" as="sourcePoint" />
            <mxPoint x="505" y="290" as="targetPoint" />
            <Array as="points" />
          </mxGeometry>
        </mxCell>
        <mxCell id="cbilipExDDbKOgptpwRu-31" value="Exibe ao cliente uma lista de produtos disponíveis para escolha." style="whiteSpace=wrap;html=1;aspect=fixed;" vertex="1" parent="1">
          <mxGeometry x="-890" y="280" width="150" height="150" as="geometry" />
        </mxCell>
        <mxCell id="cbilipExDDbKOgptpwRu-32" value="Apresentar menu" style="text;strokeColor=none;fillColor=none;html=1;fontSize=24;fontStyle=1;verticalAlign=middle;align=center;" vertex="1" parent="1">
          <mxGeometry x="-865" y="250" width="100" height="40" as="geometry" />
        </mxCell>
        <mxCell id="cbilipExDDbKOgptpwRu-33" value="" style="endArrow=classic;html=1;rounded=0;exitX=0.5;exitY=1;exitDx=0;exitDy=0;entryX=0.5;entryY=0;entryDx=0;entryDy=0;" edge="1" parent="1" source="cbilipExDDbKOgptpwRu-31" target="cbilipExDDbKOgptpwRu-35">
          <mxGeometry width="50" height="50" relative="1" as="geometry">
            <mxPoint x="480" y="570" as="sourcePoint" />
            <mxPoint x="505" y="530" as="targetPoint" />
          </mxGeometry>
        </mxCell>
        <mxCell id="cbilipExDDbKOgptpwRu-34" value="O cliente seleciona os produtos que deseja incluir em seu pedido." style="whiteSpace=wrap;html=1;aspect=fixed;" vertex="1" parent="1">
          <mxGeometry x="-885" y="490" width="145" height="145" as="geometry" />
        </mxCell>
        <mxCell id="cbilipExDDbKOgptpwRu-35" value="Selecionar Produtos" style="text;strokeColor=none;fillColor=none;html=1;fontSize=24;fontStyle=1;verticalAlign=middle;align=center;" vertex="1" parent="1">
          <mxGeometry x="-865" y="450" width="100" height="40" as="geometry" />
        </mxCell>
        <mxCell id="cbilipExDDbKOgptpwRu-38" value="" style="endArrow=classic;html=1;rounded=0;exitX=1;exitY=0.5;exitDx=0;exitDy=0;entryX=0;entryY=0.5;entryDx=0;entryDy=0;" edge="1" parent="1" source="cbilipExDDbKOgptpwRu-34" target="cbilipExDDbKOgptpwRu-39">
          <mxGeometry width="50" height="50" relative="1" as="geometry">
            <mxPoint x="-710" y="580" as="sourcePoint" />
            <mxPoint x="-700" y="563" as="targetPoint" />
          </mxGeometry>
        </mxCell>
        <mxCell id="cbilipExDDbKOgptpwRu-39" value="Calcular o total do pedido" style="rounded=1;whiteSpace=wrap;html=1;" vertex="1" parent="1">
          <mxGeometry x="-680" y="526.25" width="150" height="72.5" as="geometry" />
        </mxCell>
        <mxCell id="cbilipExDDbKOgptpwRu-40" value="Escolher a forma de pagamento" style="rounded=1;whiteSpace=wrap;html=1;" vertex="1" parent="1">
          <mxGeometry x="-480" y="528.13" width="140" height="68.75" as="geometry" />
        </mxCell>
        <mxCell id="cbilipExDDbKOgptpwRu-41" value="" style="endArrow=classic;html=1;rounded=0;exitX=1;exitY=0.5;exitDx=0;exitDy=0;entryX=0;entryY=0.5;entryDx=0;entryDy=0;" edge="1" parent="1" source="cbilipExDDbKOgptpwRu-39" target="cbilipExDDbKOgptpwRu-40">
          <mxGeometry width="50" height="50" relative="1" as="geometry">
            <mxPoint x="-510" y="580" as="sourcePoint" />
            <mxPoint x="-460" y="530" as="targetPoint" />
          </mxGeometry>
        </mxCell>
        <mxCell id="cbilipExDDbKOgptpwRu-42" value="" style="endArrow=classic;html=1;rounded=0;exitX=1;exitY=0.5;exitDx=0;exitDy=0;entryX=0;entryY=0.5;entryDx=0;entryDy=0;" edge="1" parent="1" source="cbilipExDDbKOgptpwRu-40" target="cbilipExDDbKOgptpwRu-43">
          <mxGeometry width="50" height="50" relative="1" as="geometry">
            <mxPoint x="-320" y="576.25" as="sourcePoint" />
            <mxPoint x="-280" y="560" as="targetPoint" />
          </mxGeometry>
        </mxCell>
        <mxCell id="cbilipExDDbKOgptpwRu-43" value="processar pagamento" style="rounded=1;whiteSpace=wrap;html=1;" vertex="1" parent="1">
          <mxGeometry x="-280" y="530" width="130" height="66.88" as="geometry" />
        </mxCell>
        <mxCell id="cbilipExDDbKOgptpwRu-44" value="" style="endArrow=classic;html=1;rounded=0;exitX=1;exitY=0.5;exitDx=0;exitDy=0;entryX=1;entryY=0.5;entryDx=0;entryDy=0;" edge="1" parent="1" source="cbilipExDDbKOgptpwRu-43" target="cbilipExDDbKOgptpwRu-45">
          <mxGeometry width="50" height="50" relative="1" as="geometry">
            <mxPoint x="-130" y="570" as="sourcePoint" />
            <mxPoint x="-110" y="640" as="targetPoint" />
            <Array as="points">
              <mxPoint x="-40" y="563" />
              <mxPoint x="-40" y="640" />
            </Array>
          </mxGeometry>
        </mxCell>
        <mxCell id="cbilipExDDbKOgptpwRu-45" value="emitir nota fiscal" style="rounded=1;whiteSpace=wrap;html=1;" vertex="1" parent="1">
          <mxGeometry x="-280" y="610" width="125" height="70" as="geometry" />
        </mxCell>
        <mxCell id="cbilipExDDbKOgptpwRu-46" value="" style="endArrow=none;dashed=1;html=1;rounded=0;entryX=0.5;entryY=1;entryDx=0;entryDy=0;exitX=0.5;exitY=0;exitDx=0;exitDy=0;" edge="1" parent="1" source="cbilipExDDbKOgptpwRu-47" target="cbilipExDDbKOgptpwRu-45">
          <mxGeometry width="50" height="50" relative="1" as="geometry">
            <mxPoint x="-220" y="750" as="sourcePoint" />
            <mxPoint x="-210" y="690" as="targetPoint" />
          </mxGeometry>
        </mxCell>
        <mxCell id="cbilipExDDbKOgptpwRu-47" value="informações da nota fiscal" style="shape=document;whiteSpace=wrap;html=1;boundedLbl=1;" vertex="1" parent="1">
          <mxGeometry x="-280" y="750" width="120" height="80" as="geometry" />
        </mxCell>
      </root>
    </mxGraphModel>
  </diagram>
</mxfile>
